<svg xmlns="http://www.w3.org/2000/svg" width="120" height="120" viewBox="0 0 120 120" fill="none">
  <rect width="120" height="120" rx="26" fill="#16181F"/>
  <g transform="translate(10 10)">
    <rect x="0" y="0" width="14" height="14" rx="3" fill="#fff"/>
    <rect x="20" y="0" width="14" height="14" rx="3" fill="#fff"/>
    <rect x="40" y="0" width="14" height="14" rx="3" fill="#fff"/>
    <rect x="60" y="0" width="14" height="14" rx="3" fill="#fff"/>
    <rect x="80" y="0" width="14" height="14" rx="3" fill="#C6F24E"/>
    <rect x="0" y="20" width="14" height="14" rx="3" fill="#fff"/>
    <rect x="0" y="40" width="14" height="14" rx="3" fill="#fff"/>
    <rect x="0" y="60" width="14" height="14" rx="3" fill="#fff"/>
    <rect x="0" y="80" width="14" height="14" rx="3" fill="#fff"/>
    <rect x="20" y="80" width="14" height="14" rx="3" fill="#fff"/>
    <rect x="40" y="80" width="14" height="14" rx="3" fill="#fff"/>
    <rect x="60" y="80" width="14" height="14" rx="3" fill="#fff"/>
    <rect x="80" y="80" width="14" height="14" rx="3" fill="#fff"/>
  </g>
</svg>
