<svg xmlns="http://www.w3.org/2000/svg" viewBox="0 0 100 100">
  <rect width="100" height="100" rx="22" fill="#0C0C0E"/>
  <g transform="translate(22,15) scale(0.703)" fill="#F4F4F5">
    <rect x="0.5" y="0.5" width="17" height="17" rx="3.5"/>
    <rect x="21" y="0.5" width="17" height="17" rx="3.5"/>
    <rect x="41.5" y="0.5" width="17" height="17" rx="3.5"/>
    <rect x="0.5" y="21" width="17" height="17" rx="3.5"/>
    <rect x="0.5" y="41.5" width="17" height="17" rx="3.5"/>
    <rect x="0.5" y="62" width="17" height="17" rx="3.5"/>
    <rect x="0.5" y="82.5" width="17" height="17" rx="3.5"/>
    <rect x="21" y="82.5" width="17" height="17" rx="3.5"/>
    <rect x="41.5" y="82.5" width="17" height="17" rx="3.5"/>
    <rect x="62" y="82.5" width="17" height="17" rx="3.5"/>
    <rect x="62" y="0.5" width="17" height="17" rx="3.5" fill="#C8FF00"/>
  </g>
</svg>
